<svg width="67" height="11" fill="none" xmlns="http://www.w3.org/2000/svg"><path d="M8.822.874V10H6.6V6.243H3.141V10H.918V.874h2.223v3.575H6.6V.874h2.223Zm6.828 0V10h-2.223V.874h2.223ZM24.915 10l-1.898-3.445h-.533V10h-2.223V.874h3.731c.72 0 1.33.126 1.833.377.511.251.893.598 1.144 1.04.251.433.377.919.377 1.456 0 .607-.173 1.148-.52 1.625-.338.477-.84.815-1.508 1.014L27.424 10h-2.509Zm-2.43-5.018h1.377c.407 0 .71-.1.91-.299.208-.2.312-.481.312-.845 0-.347-.104-.62-.312-.819-.2-.2-.503-.299-.91-.299h-1.378v2.262Zm11.48-2.327v1.846h2.976v1.716h-2.977v2.002h3.367V10h-5.59V.874h5.59v1.781h-3.367ZM49.714.874v5.46c0 .546.134.966.403 1.261.268.295.663.442 1.183.442s.918-.147 1.196-.442c.277-.295.416-.715.416-1.261V.874h2.223v5.447c0 .815-.174 1.504-.52 2.067a3.32 3.32 0 0 1-1.404 1.274c-.581.286-1.231.429-1.95.429-.72 0-1.365-.139-1.937-.416a3.212 3.212 0 0 1-1.34-1.274c-.329-.572-.493-1.265-.493-2.08V.874h2.223Zm13.284 9.217c-.668 0-1.266-.108-1.794-.325a2.97 2.97 0 0 1-1.274-.962c-.312-.425-.477-.936-.494-1.534h2.366c.034.338.151.598.35.78.2.173.46.26.78.26.33 0 .59-.074.78-.221A.78.78 0 0 0 64 7.452a.736.736 0 0 0-.234-.559 1.734 1.734 0 0 0-.56-.364 8.438 8.438 0 0 0-.935-.325c-.59-.182-1.07-.364-1.443-.546a2.667 2.667 0 0 1-.962-.806c-.269-.355-.403-.819-.403-1.391 0-.85.307-1.512.923-1.989C61 .987 61.802.744 62.79.744c1.005 0 1.815.243 2.43.728.616.477.945 1.144.989 2.002h-2.405c-.018-.295-.126-.524-.325-.689-.2-.173-.455-.26-.767-.26-.269 0-.486.074-.65.221-.165.139-.247.342-.247.611 0 .295.138.524.416.689.277.165.71.342 1.3.533.589.2 1.066.39 1.43.572.372.182.693.446.962.793.268.347.403.793.403 1.339 0 .52-.135.992-.403 1.417-.26.425-.642.763-1.144 1.014-.503.251-1.097.377-1.781.377Z" fill="#fff"/></svg>